<svg width="171" height="160" viewBox="0 0 171 160" fill="none" xmlns="http://www.w3.org/2000/svg">
<path d="M38.5592 101.734H5.30341L31.4328 114.696L38.5583 101.734H38.5592ZM132.34 101.733H165.647L139.467 114.695L132.34 101.733Z" fill="#7A3B00"/>
<path d="M85.7496 159.105C84.6645 159.105 83.63 158.853 82.8315 158.396L76.8833 154.987C76.1979 154.592 75.0278 154.329 73.9807 154.329C73.6099 154.329 73.2645 154.363 72.9932 154.429L66.3243 156.025C65.9431 156.114 65.5529 156.158 65.1615 156.157C63.5031 156.157 61.7633 155.459 60.7288 154.383L55.9815 149.436C55.2183 148.638 53.5129 147.859 52.4052 147.805L45.5572 147.46C43.6746 147.364 41.5197 145.981 40.6516 144.311L37.4895 138.229C36.9777 137.245 35.5634 136.017 34.5172 135.653L28.0463 133.39C26.2677 132.771 24.5894 130.834 24.2286 128.986L22.912 122.257C22.7022 121.172 21.6867 119.596 20.7879 118.949L15.2158 114.959C13.6849 113.863 12.6188 111.534 12.7934 109.66L13.4254 102.834C13.5294 101.73 12.9986 99.9322 12.3168 99.0608L8.09394 93.6606C6.93016 92.1772 6.56575 89.6434 7.26383 87.8934L9.79394 81.5241C10.2009 80.4936 10.2009 78.6188 9.79394 77.5919L7.26383 71.2199C6.56665 69.4726 6.93468 66.9352 8.09303 65.4527L12.3168 60.0515C12.9986 59.1801 13.5258 57.3831 13.4254 56.2784L12.7934 49.4536C12.6188 47.5779 13.6849 45.2502 15.2158 44.1501L20.7915 40.1555C21.6912 39.5092 22.7058 37.9318 22.9156 36.847L24.2331 30.1189C24.5975 28.2667 26.2713 26.334 28.049 25.7139L34.5253 23.4522C35.5715 23.0879 36.9858 21.8603 37.4976 20.8759L40.6598 14.7941C41.5279 13.1209 43.6818 11.7379 45.5654 11.6447L52.4124 11.3003C53.5165 11.2461 55.2219 10.4669 55.9896 9.66509L60.737 4.71865C61.7705 3.64113 63.5112 2.9478 65.1696 2.9478C65.5765 2.9478 65.9681 2.99028 66.3316 3.07977L73.0005 4.67526C73.325 4.74655 73.6566 4.78052 73.9888 4.7765C75.035 4.7765 76.206 4.50893 76.8915 4.11752L82.8397 0.709605C83.6381 0.2513 84.6726 0 85.7577 0C86.8392 0 87.8736 0.252203 88.6721 0.708701L94.6203 4.12204C95.3057 4.51706 96.4758 4.78011 97.522 4.78011C97.8543 4.78491 98.1859 4.75124 98.5104 4.67978L105.179 3.08339C105.561 2.99508 105.951 2.9508 106.342 2.95141C108.001 2.95141 109.74 3.64565 110.771 4.72226L115.519 9.6687C116.285 10.4669 117.991 11.2461 119.095 11.304L125.943 11.6484C127.825 11.7451 129.977 13.1281 130.848 14.7977L134.006 20.8796C134.518 21.8603 135.932 23.0879 136.978 23.4558L143.45 25.7184C145.229 26.3422 146.907 28.2748 147.271 30.1225L148.588 36.8515C148.801 37.9363 149.813 39.5128 150.716 40.16L156.289 44.1537C157.823 45.2502 158.888 47.5824 158.71 49.4572L158.083 56.2784C157.978 57.3785 158.505 59.1801 159.187 60.0515L163.411 65.4518C164.573 66.9352 164.938 69.4726 164.24 71.2199L161.71 77.5928C161.299 78.6188 161.299 80.4945 161.71 81.525L164.24 87.897C164.938 89.6479 164.573 92.1808 163.411 93.6651L159.19 99.0644C158.509 99.9367 157.981 101.734 158.083 102.838L158.714 109.663C158.888 111.538 157.823 113.867 156.292 114.967L150.719 118.957C149.821 119.604 148.805 121.181 148.596 122.265L147.279 128.993C146.918 130.842 145.241 132.775 143.462 133.398L136.986 135.661C135.944 136.024 134.526 137.253 134.014 138.236L130.856 144.318C129.988 145.988 127.834 147.371 125.95 147.468L119.103 147.813C117.999 147.867 116.293 148.65 115.526 149.444L110.779 154.39C109.748 155.468 108.009 156.165 106.35 156.165C105.943 156.165 105.552 156.118 105.187 156.033L98.5185 154.437C98.194 154.366 97.8624 154.332 97.5302 154.336C96.4803 154.336 95.3139 154.6 94.6239 154.995L88.6649 158.392C87.8691 158.853 86.831 159.105 85.7496 159.105Z" fill="url(#paint0_linear)"/>
<path d="M160.516 81.9864C159.982 80.6458 159.982 78.4492 160.516 77.1086L163.043 70.7358C163.577 69.3961 163.283 67.3667 162.395 66.2313L158.171 60.8311C157.284 59.6921 156.664 57.5886 156.796 56.1513L157.427 49.3265C157.563 47.8892 156.711 46.0252 155.536 45.1846L149.964 41.1909C148.79 40.3502 147.604 38.5061 147.325 37.0887L146.007 30.3597C145.732 28.9459 144.388 27.3965 143.028 26.9202L136.552 24.6576C135.189 24.1812 133.53 22.7439 132.863 21.4621L129.705 15.3803C129.043 14.0975 127.318 12.9902 125.877 12.9161L119.029 12.5717C117.587 12.4975 115.588 11.5873 114.588 10.545L109.842 5.59856C108.842 4.5563 106.877 3.97958 105.474 4.31585L98.8052 5.91224C97.4027 6.24941 95.2289 5.93574 93.9765 5.2189L88.0283 1.81009C86.7768 1.09325 84.7278 1.09325 83.4754 1.81009L77.5272 5.2189C76.2757 5.93935 74.101 6.24941 72.6985 5.91224L66.0296 4.31585C64.6271 3.97958 62.6585 4.5563 61.6584 5.59856L56.9111 10.545C55.9119 11.5873 53.9162 12.4975 52.4748 12.5717L45.6269 12.9161C44.1855 12.9902 42.462 14.0975 41.7991 15.3803L38.637 21.4621C37.9741 22.7403 36.3112 24.1776 34.9512 24.6576L28.4804 26.9202C27.1158 27.3929 25.7748 28.9423 25.4963 30.3597L24.1788 37.0887C23.903 38.5061 22.7139 40.3502 21.5393 41.1909L15.9673 45.1846C14.7927 46.0252 13.9408 47.8892 14.0765 49.3256L14.7077 56.1513C14.8397 57.5886 14.2239 59.6921 13.3323 60.8311L9.10851 66.2313C8.22143 67.3703 7.93026 69.3961 8.46106 70.7367L10.9875 77.1095C11.5229 78.4492 11.5229 80.6458 10.9875 81.9864L8.46106 88.3593C7.93026 89.6989 8.22143 91.7283 9.10851 92.8637L13.3323 98.2639C14.2194 99.3993 14.8397 101.506 14.7077 102.944L14.0765 109.769C13.9408 111.206 14.7936 113.07 15.9673 113.91L21.5393 117.904C22.7139 118.745 23.8994 120.589 24.1788 122.006L25.4963 128.732C25.7712 130.149 27.1158 131.695 28.4804 132.171L34.9512 134.434C36.3157 134.91 37.9741 136.348 38.6406 137.629L41.8028 143.711C42.4692 144.994 44.1936 146.101 45.6314 146.171L52.4784 146.516C53.9198 146.589 55.92 147.5 56.9156 148.542L61.6629 153.489C62.6621 154.531 64.6271 155.108 66.0332 154.771L72.703 153.175C74.1046 152.838 76.2793 153.152 77.5317 153.868L83.479 157.278C84.7305 157.998 86.7804 157.998 88.0319 157.278L93.981 153.868C95.2325 153.148 97.4063 152.838 98.8088 153.175L105.478 154.771C106.881 155.108 108.85 154.531 109.845 153.489L114.593 148.542C115.592 147.5 117.587 146.589 119.033 146.516L125.88 146.171C127.322 146.098 129.046 144.989 129.709 143.711L132.868 137.629C133.534 136.351 135.192 134.91 136.556 134.434L143.031 132.171C144.396 131.695 145.736 130.145 146.012 128.732L147.329 122.006C147.608 120.589 148.794 118.745 149.968 117.904L155.54 113.91C156.715 113.07 157.567 111.206 157.432 109.769L156.8 102.944C156.664 101.506 157.284 99.4029 158.175 98.2639L162.4 92.8637C163.29 91.7247 163.582 89.6989 163.046 88.3584L160.516 81.9855V81.9864Z" fill="url(#paint1_linear)"/>
<path d="M85.7496 19.238C52.4278 19.238 25.4186 46.2392 25.4186 79.5499C25.4186 112.861 52.4287 139.861 85.7505 139.861C119.068 139.861 146.081 112.861 146.081 79.549C146.081 46.2383 119.068 19.238 85.7496 19.238ZM85.7496 116.533C65.3206 116.533 48.7547 99.9757 48.7547 79.5499C48.7547 59.1269 65.317 42.57 85.7496 42.57C106.179 42.57 122.742 59.1269 122.742 79.5499C122.745 99.9721 106.183 116.533 85.7496 116.533Z" fill="black"/>
<path d="M24.3145 100.41L23.9311 99.1774L22.6407 99.1621L23.6896 98.4145L23.3071 97.1824L24.3416 97.9535L25.3914 97.2059L24.9809 98.4299L26.0154 99.2009L24.725 99.1847L24.3145 100.41ZM22.9002 95.6601L22.609 94.4009L21.3223 94.2889L22.4309 93.6263L22.1443 92.3707L23.1172 93.2159L24.2249 92.5533L23.7177 93.7383L24.6906 94.5872L23.4039 94.4742L22.9002 95.6601ZM21.8495 90.8095L21.6596 89.535L20.3846 89.3225L21.5393 88.7449L21.3494 87.4703L22.2528 88.3887L23.4075 87.8111L22.8107 88.9582L23.7177 89.8803L22.4427 89.6669L21.8495 90.8095ZM21.1758 85.9011L21.0827 84.6156L19.8312 84.3056L21.0284 83.822L20.9353 82.5356L21.7645 83.5191L22.9617 83.0355L22.2799 84.1311L23.1091 85.1191L21.8576 84.8091L21.1758 85.902V85.9011ZM20.8846 80.9591L20.8928 79.6683L19.6684 79.2615L20.8964 78.871L20.9045 77.5811L21.656 78.6269L22.8839 78.2355L22.1207 79.2733L22.8731 80.3237L21.6478 79.9205L20.8846 80.9591ZM20.9705 76.0046L21.0745 74.7219L19.8854 74.222L21.1405 73.9237L21.2454 72.6382L21.9155 73.7383L23.1715 73.44L22.3305 74.4199L23.0006 75.5237L21.807 75.0238L20.9705 76.0046ZM21.4317 71.0726L21.6324 69.798L20.4813 69.2131L21.7563 69.0116L21.958 67.737L22.543 68.8877L23.818 68.6861L22.9038 69.5973L23.4889 70.7472L22.3378 70.1623L21.4308 71.0726H21.4317ZM22.2681 66.2003L22.5665 64.9438L21.4661 64.2748L22.7528 64.17L23.0512 62.9144L23.5513 64.104L24.8371 63.9991L23.8569 64.8398L24.357 66.033L23.2529 65.3632L22.2681 66.1994V66.2003ZM23.4735 61.3885L23.8651 60.16L22.8188 59.4089L24.1092 59.4007L24.4998 58.1731L24.9068 59.3971L26.198 59.3899L25.1554 60.1528L25.5578 61.3768L24.5116 60.6211L23.4735 61.3885ZM25.0388 56.6934L25.5235 55.5002L24.5351 54.6712L25.8219 54.7598L26.3056 53.5666L26.6203 54.8186L27.9062 54.9117L26.8102 55.5933L27.1195 56.8443L26.132 56.0154L25.0388 56.6934ZM26.9567 52.1221L27.5309 50.9677L26.6086 50.0656L27.8836 50.2554L28.4569 49.1011L28.6703 50.3711L29.9489 50.5609L28.805 51.1576L29.0184 52.4321L28.0961 51.5291L26.9567 52.1221ZM29.2164 47.718L29.8793 46.6098L29.0302 45.6371L30.2898 45.9237L30.9526 44.8163L31.0684 46.1026L32.328 46.3892L31.1425 46.8963L31.2583 48.1826L30.4101 47.21L29.2164 47.718ZM31.8126 43.4911L32.5568 42.438L31.7818 41.403L33.0134 41.7826L33.7576 40.7295L33.7775 42.0195L35.0091 42.4028L33.7884 42.8177L33.8046 44.1103L33.0333 43.0771L31.8126 43.4911ZM34.7188 39.4821L35.5408 38.4904L34.8509 37.4021L36.0481 37.8785L36.8701 36.8868L36.7887 38.1722L37.9895 38.6486L36.7381 38.9668L36.6567 40.2568L35.9667 39.1684L34.7188 39.4821ZM37.9272 35.7054L38.8269 34.7788L38.2219 33.6398L39.3803 34.2057L40.2755 33.28L40.0974 34.5546L41.2602 35.1241L39.9852 35.3483L39.8071 36.6274L39.2022 35.4884L37.9272 35.7054ZM41.423 32.1799L42.3879 31.3239L41.8724 30.1424L42.9847 30.7969L43.9495 29.9408L43.6746 31.2L44.7868 31.8545L43.5037 31.9783L43.2243 33.2376L42.7089 32.0561L41.423 32.1799ZM45.1621 28.9492L46.1893 28.1709L45.7671 26.9542L46.825 27.69L47.8514 26.9117L47.4797 28.1474L48.5377 28.8832L47.2473 28.9103L46.8748 30.146L46.4489 28.9257L45.1621 28.9492ZM49.1499 26.0014L50.235 25.3035L49.9058 24.0561L50.905 24.8742L51.9902 24.1763L51.5254 25.3777L52.5246 26.1948L51.2387 26.1207L50.7694 27.3257L50.4403 26.0782L49.1499 26.0014ZM53.3384 23.3709L54.4741 22.7589L54.2381 21.488L55.1758 22.3756L56.3071 21.7591L55.7528 22.9252L56.6869 23.812L55.4082 23.6457L54.8503 24.8118L54.6179 23.5408L53.3384 23.3709ZM57.7295 21.0586L58.9068 20.5316L58.7676 19.2489L59.632 20.2061L60.8103 19.6791L60.171 20.7982L61.0391 21.7555L59.7749 21.4925L59.1329 22.6116L58.9927 21.3298L57.7295 21.0586ZM62.2743 19.0861L63.4878 18.6486L63.4489 17.3587L64.2392 18.3774L65.4527 17.9399L64.7275 19.0048L65.5178 20.0235L64.279 19.6638L63.5493 20.7332L63.5068 19.4432L62.2752 19.0861H62.2743ZM66.9484 17.4672L68.1917 17.1264L68.2541 15.8364L68.9631 16.913L70.2073 16.5722L69.4007 17.5838L70.1106 18.6595L68.9016 18.203L68.095 19.21L68.1537 17.92L66.9484 17.4672ZM71.75 16.2116L73.0159 15.9675L73.1751 14.6857L73.799 15.8129L75.0668 15.5689L74.1869 16.5144L74.8109 17.6416L73.6408 17.0956L72.7564 18.0357L72.9156 16.7585L71.7491 16.2116H71.75ZM76.6321 15.3284L77.9143 15.1811L78.1702 13.9191L78.7055 15.0925L79.9878 14.9451L79.0383 15.8165L79.5772 16.9908L78.4532 16.3553L77.5001 17.2267L77.7561 15.9639L76.6321 15.3284ZM81.5575 14.8249L82.8434 14.7788L83.1961 13.5386L83.6419 14.7517L84.9322 14.7047L83.9168 15.5029L84.3625 16.716L83.2892 15.9955L82.2737 16.7928L82.6264 15.5535L81.5575 14.8249ZM86.5129 14.6974L87.8042 14.7481L88.249 13.5386L88.6017 14.7824L89.8885 14.833L88.8151 15.5499L89.1678 16.7928L88.1523 15.991L87.0789 16.7078L87.5247 15.4993L86.5138 14.6974H86.5129ZM91.4546 14.9487L92.7369 15.0961L93.2758 13.9264L93.5317 15.1892L94.814 15.3365L93.69 15.972L93.9459 17.2348L92.9928 16.3634L91.8688 16.998L92.4032 15.8247L91.4546 14.9487ZM96.3675 15.577L97.6352 15.8211L98.2592 14.6893L98.4174 15.972L99.6807 16.2161L98.5151 16.7657L98.6733 18.0448L97.7899 17.1029L96.6198 17.6489L97.2437 16.518L96.3675 15.577ZM101.223 16.5759L102.468 16.9167L103.177 15.8364L103.238 17.1228L104.482 17.4635L103.273 17.92L103.336 19.21L102.529 18.203L101.32 18.6604L102.029 17.5829L101.223 16.5759ZM105.993 17.9435L107.207 18.3774L107.997 17.3587L107.958 18.6486L109.171 19.0825L107.935 19.4468L107.897 20.7368L107.168 19.671L105.928 20.0353L106.718 19.0129L105.993 17.9435ZM110.636 19.6638L111.814 20.1908L112.678 19.2299L112.543 20.5117L113.72 21.0351L112.461 21.3026L112.326 22.5844L111.678 21.469L110.415 21.7356L111.28 20.7756L110.636 19.6638ZM115.135 21.7356L116.27 22.3476L117.204 21.4617L116.972 22.7273L118.108 23.3402L116.828 23.5101L116.596 24.7811L116.038 23.6186L114.759 23.7894L115.693 22.8981L115.135 21.7356ZM119.471 24.1456L120.556 24.8425L121.556 24.029L121.226 25.2764L122.312 25.9743L121.025 26.0475L120.696 27.295L120.227 26.0936L118.94 26.1677L119.941 25.3506L119.471 24.1456ZM123.602 26.8764L124.629 27.6547L125.687 26.9189L125.265 28.1356L126.291 28.9139L125.001 28.8868L124.578 30.1072L124.207 28.8715L122.916 28.8443L123.974 28.1085L123.602 26.8764ZM127.512 29.9173L128.477 30.7734L129.589 30.1189L129.074 31.3004L130.038 32.1564L128.756 32.0326L128.241 33.2141L127.961 31.9512L126.679 31.8238L127.791 31.1729L127.512 29.9173ZM131.186 33.2529L132.081 34.1786L133.239 33.6127L132.634 34.7517L133.53 35.6818L132.263 35.4568L131.654 36.5957L131.476 35.3176L130.201 35.0934L131.36 34.5275L131.186 33.2529ZM134.58 36.8552L135.402 37.8513L136.603 37.375L135.91 38.4633L136.731 39.455L135.483 39.1368L134.793 40.226L134.712 38.9397L133.46 38.6179L134.662 38.1451L134.58 36.8552ZM137.696 40.7142L138.44 41.7673L139.672 41.384L138.901 42.4181L139.645 43.4721L138.424 43.0572L137.65 44.0922L137.665 42.8014L136.441 42.3874L137.672 42.0041L137.696 40.7142ZM140.49 44.7892L141.156 45.8929L142.412 45.5991L141.567 46.5754L142.233 47.6782L141.044 47.1792L140.2 48.1555L140.308 46.8692L139.118 46.3693L140.373 46.0755L140.49 44.7892ZM142.993 49.0694L143.571 50.2238L144.846 50.0303L143.927 50.937L144.505 52.0913L143.361 51.4983L142.443 52.405L142.652 51.1304L141.505 50.5374L142.78 50.344L142.993 49.0694ZM145.159 53.5241L145.648 54.7173L146.934 54.6206L145.95 55.4541L146.438 56.6473L145.341 55.9693L144.357 56.8009L144.663 55.5463L143.567 54.8647L144.853 54.768L145.159 53.5241ZM146.977 58.1307L147.372 59.3582L148.662 59.3618L147.616 60.1175L148.011 61.346L146.969 60.5867L145.923 61.3415L146.326 60.1139L145.283 59.351L146.574 59.3546L146.977 58.1307ZM148.437 62.8602L148.736 64.1157L150.022 64.2197L148.922 64.8941L149.22 66.1487L148.24 65.3126L147.14 65.9869L147.635 64.7937L146.655 63.953L147.942 64.0534L148.437 62.8602ZM149.531 67.6945L149.732 68.9691L151.007 69.1707L149.856 69.7555L150.058 71.0301L149.147 70.1198L147.996 70.7047L148.581 69.5539L147.667 68.6437L148.941 68.8452L149.531 67.6945ZM150.248 72.5994L150.352 73.8812L151.608 74.1795L150.418 74.6757L150.523 75.9612L149.682 74.9849L148.492 75.4812L149.163 74.3811L148.322 73.4012L149.577 73.6995L150.248 72.5994ZM150.584 77.5386L150.589 78.8285L151.816 79.2235L150.592 79.6258L150.596 80.9157L149.833 79.878L148.608 80.2812L149.364 79.2308L148.6 78.1885L149.829 78.5844L150.584 77.5386ZM150.546 82.4968L150.453 83.7831L151.65 84.2712L150.399 84.5768L150.305 85.8631L149.624 84.7666L148.371 85.0766L149.205 84.0886L148.523 82.9921L149.716 83.4803L150.546 82.4968ZM150.127 87.4324L149.937 88.7069L151.092 89.2837L149.817 89.497L149.627 90.7707L149.03 89.6281L147.759 89.8414L148.666 88.9194L148.069 87.7731L149.224 88.3499L150.127 87.4324ZM149.333 92.3164L149.046 93.5756L150.154 94.2382L148.868 94.3503L148.581 95.6095L148.073 94.4244L146.787 94.5402L147.759 93.6922L147.252 92.5063L148.36 93.1689L149.333 92.3164ZM148.171 97.1354L147.791 98.3675L148.844 99.1115L147.554 99.1268L147.17 100.359L146.755 99.1386L145.465 99.1539L146.5 98.3829L146.085 97.1589L147.14 97.9029L148.171 97.1354ZM146.647 101.842L146.175 103.044L147.17 103.864L145.884 103.783L145.411 104.984L145.09 103.737L143.803 103.656L144.892 102.966L144.57 101.715L145.566 102.536L146.647 101.842ZM144.771 106.429L144.206 107.587L145.136 108.482L143.857 108.304L143.296 109.463L143.067 108.192L141.788 108.014L142.927 107.409L142.702 106.139L143.632 107.034L144.771 106.429ZM142.548 110.865L141.897 111.98L142.757 112.945L141.493 112.67L140.842 113.782L140.715 112.499L139.451 112.224L140.634 111.705L140.505 110.419L141.361 111.384L142.548 110.865ZM139.99 115.111L139.254 116.172L140.037 117.198L138.801 116.826L138.068 117.887L138.037 116.598L136.8 116.226L138.021 115.799L137.994 114.509L138.777 115.536L139.99 115.111ZM137.122 119.147L136.308 120.146L137.01 121.227L135.805 120.762L134.991 121.762L135.061 120.476L133.855 120.011L135.103 119.677L135.173 118.387L135.874 119.469L137.122 119.147ZM133.945 122.955L133.058 123.892L133.673 125.023L132.507 124.466L131.62 125.403L131.786 124.125L130.623 123.571L131.895 123.335L132.066 122.056L132.682 123.191L133.945 122.955ZM130.492 126.499L129.535 127.363L130.062 128.541L128.946 127.898L127.988 128.761L128.256 127.503L127.14 126.859L128.422 126.724L128.69 125.461L129.217 126.639L130.492 126.499ZM126.768 129.776L125.749 130.563L126.183 131.775L125.117 131.047L124.098 131.834L124.458 130.598L123.393 129.869L124.683 129.831L125.048 128.591L125.482 129.807L126.768 129.776ZM122.812 132.756L121.735 133.464L122.075 134.707L121.068 133.902L119.99 134.611L120.444 133.402L119.436 132.597L120.726 132.658L121.18 131.45L121.521 132.693L122.812 132.756ZM118.638 135.424L117.511 136.052L117.755 137.319L116.809 136.439L115.681 137.067L116.224 135.897L115.282 135.017L116.561 135.177L117.107 134.007L117.352 135.273L118.638 135.424ZM114.286 137.772L113.116 138.311L113.267 139.592L112.392 138.643L111.217 139.182L111.849 138.058L110.973 137.109L112.24 137.361L112.872 136.238L113.023 137.52L114.286 137.772ZM109.752 139.787L108.543 140.231L108.594 141.521L107.795 140.511L106.586 140.96L107.3 139.887L106.501 138.872L107.745 139.221L108.462 138.148L108.513 139.438L109.752 139.787ZM105.087 141.448L103.843 141.801L103.797 143.091L103.075 142.018L101.836 142.37L102.63 141.355L101.91 140.282L103.122 140.728L103.916 139.713L103.87 141.003L105.087 141.448ZM100.301 142.746L99.0377 143.001L98.8903 144.284L98.2547 143.16L96.9878 143.416L97.8595 142.463L97.2247 141.34L98.3984 141.874L99.2701 140.925L99.1227 142.207L100.301 142.746ZM95.4379 143.672L94.1593 143.831L93.9151 145.097L93.3689 143.928L92.0858 144.086L93.0271 143.207L92.481 142.037L93.6131 142.66L94.5544 141.782L94.3103 143.048L95.4379 143.672ZM90.5124 144.221L89.222 144.28L88.8811 145.523L88.4281 144.315L87.1377 144.372L88.1451 143.567L87.6875 142.358L88.769 143.067L89.7763 142.262L89.4354 143.506L90.5124 144.221ZM85.5571 144.392L84.2658 144.353L83.8317 145.566L83.4673 144.326L82.177 144.287L83.2431 143.56L82.8787 142.32L83.9014 143.11L84.9675 142.382L84.5335 143.594L85.5562 144.392H85.5571ZM80.6117 144.187L79.3295 144.052L78.8023 145.229L78.5346 143.967L77.2524 143.831L78.3682 143.184L78.1006 141.921L79.0582 142.784L80.1777 142.141L79.6505 143.319L80.6117 144.187ZM75.679 143.598L74.4112 143.365L73.7954 144.501L73.6245 143.223L72.3585 142.99L73.5205 142.433L73.3496 141.153L74.2367 142.091L75.4032 141.533L74.791 142.669L75.679 143.598ZM70.8267 142.645L69.5789 142.316L68.8826 143.401L68.812 142.114L67.5642 141.785L68.7659 141.316L68.6954 140.026L69.5137 141.026L70.7182 140.557L70.021 141.642L70.8267 142.645ZM66.045 141.324L64.8288 140.902L64.0493 141.928L64.0765 140.638L62.8602 140.216L64.0918 139.841L64.119 138.551L64.8595 139.608L66.0957 139.236L65.3171 140.267L66.045 141.324ZM61.3881 139.643L60.2053 139.128L59.349 140.092L59.4729 138.81L58.291 138.295L59.5506 138.016L59.6745 136.73L60.3292 137.846L61.5888 137.567L60.7325 138.531L61.3872 139.643H61.3881ZM56.8731 137.613L55.7302 137.009L54.8033 137.907L55.0248 136.637L53.8855 136.033L55.1605 135.851L55.3811 134.58L55.9508 135.738L57.2294 135.556L56.3035 136.455L56.8731 137.613ZM52.5173 135.243L51.4286 134.556L50.4366 135.382L50.754 134.131L49.6617 133.441L50.9475 133.356L51.2658 132.109L51.7424 133.309L53.0328 133.224L52.0408 134.049L52.5173 135.243ZM48.355 132.55L47.3206 131.779L46.2707 132.527L46.6813 131.303L45.6468 130.532L46.9372 130.544L47.3477 129.323L47.7311 130.555L49.0224 130.571L47.968 131.318L48.355 132.55ZM44.4179 129.548L43.4458 128.7L42.3372 129.362L42.8409 128.173L41.8688 127.328L43.151 127.44L43.6547 126.255L43.9459 127.514L45.2317 127.63L44.124 128.293L44.4179 129.548ZM40.7213 126.244L39.8189 125.325L38.6641 125.903L39.2609 124.76L38.3576 123.842L39.629 124.055L40.2212 122.908L40.4157 124.186L41.6907 124.4L40.535 124.977L40.7213 126.244ZM37.2924 122.668L36.4586 121.684L35.265 122.169L35.9477 121.076L35.114 120.088L36.3655 120.398L37.0482 119.301L37.1404 120.588L38.3928 120.898L37.1947 121.382L37.2924 122.668ZM34.1455 118.845L33.3896 117.799L32.1616 118.194L32.9248 117.152L32.1688 116.106L33.3941 116.509L34.1573 115.467L34.1528 116.757L35.3817 117.16L34.1528 117.555L34.1455 118.845ZM31.2971 114.789L30.6271 113.689L29.3711 113.987L30.212 113.007L29.542 111.907L30.7311 112.402L31.5684 111.422L31.4635 112.709L32.6571 113.204L31.402 113.502L31.2971 114.789ZM28.7625 110.528L28.1775 109.381L26.9025 109.586L27.8139 108.672L27.2244 107.525L28.3755 108.107L29.2861 107.192L29.0844 108.466L30.2355 109.051L28.9605 109.257L28.7625 110.528ZM26.5615 106.095L26.0615 104.907L24.7756 105.012L25.7522 104.171L25.2522 102.981L26.3563 103.647L27.3329 102.803L27.0381 104.058L28.1431 104.729L26.8563 104.837L26.5615 106.095Z" fill="url(#paint2_linear)"/>
<path d="M165.647 58.0754H5.30341V101.737H165.647V58.0763V58.0754Z" fill="url(#paint3_linear)"/>
<path d="M169.913 80.0631C169.913 92.3307 165.647 100.106 165.647 100.106H5.3034C5.3034 100.106 1.08686 92.2964 1.08686 79.9348C1.08686 69.6387 5.3034 59.7061 5.3034 59.7061H165.647C165.647 59.7024 169.913 70.8934 169.913 80.0631Z" fill="url(#paint4_linear)"/>
<path d="M90.0629 48.6555L87.7652 50.891L88.315 54.0521L85.4711 52.5569L82.6344 54.0521L83.177 50.891L80.8829 48.6555L84.0568 48.199L85.4711 45.3208L86.8935 48.199L90.0629 48.6555ZM98.061 50.9289L96.9605 48.6944L95.8601 50.9298L93.3914 51.286L95.1746 53.0252L94.7514 55.4812L96.9605 54.3197L99.1696 55.4812L98.7428 53.0252L100.53 51.286L98.061 50.9298V50.9289ZM75.0893 51.0618L73.9852 48.8227L72.8848 51.0618L70.4197 51.4143L72.1984 53.1526L71.7807 55.6123L73.9852 54.4498L76.1943 55.6123L75.7675 53.1526L77.5543 51.4134L75.0893 51.0609V51.0618ZM80.8829 110.443L83.1842 108.204L82.6344 105.047L85.4747 106.542L88.315 105.047L87.7724 108.204L90.0629 110.443L86.8935 110.9L85.4747 113.778L84.0568 110.9L80.8829 110.443ZM72.8848 108.169L73.9852 110.405L75.0893 108.169L77.5543 107.813L75.7757 106.074L76.1943 103.618L73.9852 104.78L71.7807 103.618L72.2066 106.074L70.4197 107.813L72.8848 108.169ZM95.8601 108.038L96.9605 110.277L98.0646 108.038L100.53 107.682L98.7473 105.942L99.1696 103.486L96.9605 104.648L94.7514 103.486L95.1783 105.942L93.3914 107.682L95.8601 108.038Z" fill="black"/>
<path d="M61.6738 113.422L50.1997 122.606L47.0764 119.465C48.3822 117.594 49.9402 115.541 51.7496 113.302C50.7821 114.068 48.7348 115.634 45.6187 118.004L42.5117 114.882L51.7496 103.454L54.1839 105.898L50.8354 109.761L47.5964 113.492C49.4953 111.787 52.095 109.661 55.3965 107.115L57.9962 109.726C57.7295 110.063 56.6787 111.287 54.8539 113.398L51.1881 117.597C53.7874 115.289 56.4751 113.082 59.245 110.981L61.6738 113.422ZM68.2306 116.636L63.004 130.427L59.821 128.688L60.9152 126.293L59.8029 125.686L58.357 127.886L55.137 126.127L63.7364 114.177L68.2306 116.636ZM62.0726 123.977C62.866 122.083 63.689 120.202 64.5412 118.333C62.8828 120.615 61.7019 122.3 61.0002 123.388L62.0735 123.977H62.0726ZM70.9823 117.942L73.4002 118.615C75.0125 119.064 76.0859 119.437 76.6203 119.732C77.1547 120.025 77.5237 120.494 77.7325 121.141C77.9378 121.788 77.8763 122.714 77.539 123.91C77.2325 125.007 76.8997 125.705 76.5389 126.01C76.179 126.317 75.6166 126.402 74.8452 126.27C75.4737 126.638 75.8607 127.006 76.0081 127.374C76.1555 127.742 76.2251 128.056 76.2098 128.327C76.198 128.595 76.0316 129.295 75.7133 130.431L74.6752 134.141L71.5013 133.255L72.807 128.579C73.0168 127.827 73.0937 127.343 73.0322 127.134C72.9698 126.924 72.7067 126.751 72.2338 126.619L70.4587 132.964L67.0406 132.007L70.9823 117.942ZM73.7258 121.303L72.8496 124.434C73.2339 124.542 73.5205 124.561 73.7059 124.492C73.8922 124.422 74.0703 124.078 74.2448 123.458L74.4618 122.683C74.5857 122.237 74.5939 121.924 74.4854 121.742C74.3732 121.559 74.1209 121.412 73.7258 121.303ZM80.41 120.347L82.9212 120.432C84.595 120.49 85.7271 120.595 86.3121 120.754C86.9008 120.912 87.3701 121.281 87.7264 121.861C88.0791 122.442 88.2382 123.357 88.1957 124.6C88.1568 125.736 87.9977 126.495 87.7228 126.878C87.4434 127.261 86.9162 127.475 86.1412 127.529C86.8393 127.738 87.3005 128.005 87.5329 128.327C87.7653 128.648 87.9045 128.939 87.9552 129.202C88.0058 129.466 88.0094 130.187 87.9705 131.364L87.8385 135.214L84.5452 135.102L84.7116 130.253C84.7387 129.47 84.6962 128.985 84.5877 128.795C84.4792 128.606 84.1808 128.502 83.6925 128.485L83.4673 135.067L79.9227 134.947L80.411 120.347H80.41ZM83.8706 122.966L83.7585 126.212C84.1573 126.227 84.4403 126.177 84.6031 126.065C84.7659 125.953 84.859 125.576 84.8825 124.934L84.9096 124.132C84.925 123.666 84.859 123.361 84.708 123.214C84.5606 123.063 84.2812 122.981 83.8706 122.966ZM96.1315 119.24L100.972 133.17L97.4146 133.875L96.7165 131.337L95.4732 131.586L95.7752 134.205L92.1753 134.917L91.102 120.236L96.1315 119.24ZM96.1161 128.82C95.5079 126.859 94.9331 124.888 94.3917 122.908C94.5816 125.721 94.7597 127.774 94.9189 129.06L96.1161 128.82ZM106.3 115.204L112.333 128.506L109.501 129.789L105.075 124.501L107.819 130.548L105.118 131.772L99.0848 118.47L101.785 117.246L106.315 122.413L103.599 116.424L106.3 115.204ZM113.535 109.912L115.294 112.248L113.612 113.514L120.641 122.85L117.805 124.984L110.776 115.653L109.098 116.916L107.338 114.58L113.535 109.912ZM119.611 103.008L125.013 111.031L129.031 114.467L126.892 116.965L122.874 113.529L114.166 109.365L116.286 106.89C118.785 108.358 120.432 109.385 121.223 109.978C120.165 108.815 118.921 107.316 117.491 105.483L119.611 103.008ZM50.8779 35.8915L60.2596 47.2027L57.1444 50.4144C55.2455 49.148 53.1603 47.6293 50.886 45.863C51.6682 46.8194 53.2688 48.8343 55.6913 51.9141L52.5951 55.1096L40.9844 46.0953L43.4105 43.5968L47.3359 46.8736L51.1302 50.0384C49.3904 48.1672 47.2202 45.6072 44.6195 42.3493L47.212 39.6763C47.553 39.9394 48.7972 40.9627 50.9439 42.748L55.2102 46.3313C52.8539 43.774 50.5993 41.1249 48.4518 38.39L50.8779 35.8915ZM60.7786 30.0067L69.7262 41.7374L66.5342 43.5308L65.0802 41.3342L63.9643 41.9615L65.0648 44.3552L61.833 46.1722L56.2682 32.5441L60.7786 30.0067ZM63.7283 39.1222C62.5383 37.4477 61.3767 35.7532 60.2442 34.0393C61.2986 36.658 62.1006 38.5527 62.6504 39.7261L63.7283 39.1222ZM66.716 27.3383L69.1575 26.6413C70.7851 26.1758 71.9046 25.9281 72.5168 25.8974C73.129 25.8666 73.695 26.0718 74.2141 26.513C74.7331 26.955 75.1635 27.7758 75.5045 28.9726C75.8146 30.0655 75.896 30.8366 75.7486 31.2858C75.6012 31.7351 75.1599 32.103 74.4266 32.3941C75.159 32.3778 75.6862 32.4863 76.0081 32.7195C76.33 32.9518 76.5543 33.1878 76.6827 33.4246C76.8102 33.6596 77.039 34.3421 77.3609 35.4766L78.4189 39.1801L75.2178 40.0949L73.8849 35.4269C73.6715 34.6757 73.4816 34.2255 73.3189 34.0791C73.1561 33.9317 72.8387 33.9236 72.3613 34.0592L74.1716 40.3932L70.7227 41.3767L66.716 27.3383ZM70.8502 28.7602L71.7418 31.8824C72.1289 31.7694 72.3848 31.6384 72.5086 31.4793C72.6325 31.3202 72.6054 30.9333 72.4273 30.3177L72.2066 29.5466C72.0791 29.101 71.92 28.8298 71.7301 28.7331C71.5402 28.6363 71.249 28.6472 70.8502 28.7602ZM79.7047 24.3118L82.2394 24.2196C83.9285 24.1572 85.076 24.1844 85.6801 24.301C86.285 24.4167 86.7851 24.7539 87.1838 25.308C87.5835 25.8621 87.8042 26.7606 87.8503 28.0036C87.8928 29.1389 87.7843 29.91 87.5329 30.3087C87.2806 30.7082 86.7652 30.9631 85.983 31.068C86.6992 31.2307 87.1838 31.4594 87.4388 31.7658C87.6956 32.0678 87.8584 32.3507 87.9244 32.6101C87.9941 32.8696 88.0483 33.59 88.0944 34.7679L88.2337 38.6187L84.906 38.738L84.727 33.8883C84.6998 33.1055 84.6221 32.6255 84.4982 32.4438C84.3743 32.2612 84.0687 32.1798 83.5722 32.1997L83.8128 38.7805L80.2319 38.9125L79.7047 24.3127V24.3118ZM83.3787 26.6793L83.499 29.9254C83.9014 29.91 84.1808 29.8404 84.34 29.7202C84.4982 29.5963 84.5642 29.2122 84.5407 28.5694L84.5099 27.7676C84.4946 27.3066 84.4051 27.0047 84.2423 26.8655C84.0795 26.7254 83.7902 26.6639 83.3787 26.6793ZM98.9446 25.6605L98.1308 40.3887L94.5345 39.6791L94.8528 37.0648L93.5932 36.8171L92.8725 39.35L89.2374 38.6341L93.8527 24.6535L98.9446 25.6605ZM95.2634 34.5084C95.4072 32.8497 95.6197 30.8085 95.9144 28.3832C95.0156 31.0562 94.3953 33.0205 94.0544 34.2716L95.2634 34.5084ZM112.469 30.8158L106.385 44.0994L103.529 42.7905L104.599 35.9765L101.832 42.0149L99.1074 40.7674L105.191 27.4847L107.916 28.7322L107.005 35.5507L109.745 29.5692L112.469 30.8167V30.8158ZM122.544 37.91L120.765 40.2305L119.076 38.936L111.969 48.2106L109.125 46.033L116.231 36.7584L114.55 35.4693L116.329 33.1489L122.544 37.91ZM130.915 47.1367L122.095 51.1304L118.045 54.5319L115.91 51.9909L119.96 48.5893L125.477 40.6635L127.597 43.1855C125.745 45.4128 124.463 46.87 123.749 47.5552C125.07 46.7028 126.752 45.7265 128.802 44.6156L130.915 47.1376V47.1367Z" fill="white"/>
<path d="M26.3219 66.5602V88.5751H31.2194V94.0837H18.265V66.5602H26.3219ZM42.0153 66.5602V94.0837H33.9592V66.5602H42.0162H42.0153ZM46.0302 66.5602H59.6754V72.0689H54.0871V77.2865H59.0623V82.524H54.0862V94.0837H46.0302V66.5602ZM62.4107 66.5602H75.8452V72.0689H70.4667V77.2865H75.5007V82.524H70.4667V88.5751H76.3806V94.0837H62.4098V66.5602H62.4107ZM95.1936 66.5602V72.0689H90.4074V94.0837H82.3514V72.0689H77.5859V66.5602H95.1936ZM105.869 66.5602V94.0837H97.8132V66.5602H105.869ZM134.743 66.5602V94.0837H127.702L127.694 75.5003L124.892 94.0837H119.897L116.941 75.927L116.933 94.0837H109.892V66.5602H120.316C120.626 68.2145 120.943 70.167 121.273 72.4133L122.416 79.4135L124.268 66.5593H134.743V66.5602ZM138.762 66.5602H152.196V72.0689H146.818V77.2865H151.852V82.524H146.818V88.5751H152.731V94.0837H138.762V66.5602Z" fill="black"/>
<defs>
<linearGradient id="paint0_linear" x1="112.92" y1="4.92565" x2="58.6131" y2="154.182" gradientUnits="userSpaceOnUse">
<stop stop-color="#F5B047"/>
<stop offset="1" stop-color="#FFCF6E"/>
</linearGradient>
<linearGradient id="paint1_linear" x1="112.48" y1="152.964" x2="59.0511" y2="6.12231" gradientUnits="userSpaceOnUse">
<stop stop-color="#DE6E00"/>
<stop offset="1" stop-color="#FFEB91"/>
</linearGradient>
<linearGradient id="paint2_linear" x1="108.353" y1="141.61" x2="63.179" y2="17.4556" gradientUnits="userSpaceOnUse">
<stop stop-color="#FFE672"/>
<stop offset="0.616" stop-color="#EDA117"/>
</linearGradient>
<linearGradient id="paint3_linear" x1="5.3025" y1="79.9041" x2="165.647" y2="79.9041" gradientUnits="userSpaceOnUse">
<stop stop-color="#B86300"/>
<stop offset="0.335" stop-color="#DE8A00"/>
<stop offset="0.758" stop-color="#FFFFBA"/>
<stop offset="1" stop-color="#B86300"/>
</linearGradient>
<linearGradient id="paint4_linear" x1="1.08686" y1="79.904" x2="169.911" y2="79.904" gradientUnits="userSpaceOnUse">
<stop stop-color="#F5B536"/>
<stop offset="0.44" stop-color="#FFEB87"/>
<stop offset="0.582" stop-color="#FFEB87"/>
<stop offset="1" stop-color="#F5B536"/>
</linearGradient>
</defs>
</svg>
